<svg viewBox="0 0 63 81" fill="none" xmlns="http://www.w3.org/2000/svg">
<g clip-path="url(#clip0_474_6007)">
<mask id="mask0_474_6007" style="mask-type:luminance" maskUnits="userSpaceOnUse" x="0" y="0" width="63" height="81">
<path d="M62.74 0H0V80.04H62.74V0Z" fill="white"></path>
</mask>
<g mask="url(#mask0_474_6007)">
<path d="M44.5801 9.91047L39.0701 20.0005C38.8501 20.4205 38.3301 20.5705 37.9101 20.3405C37.5001 20.1105 37.3501 19.6005 37.5701 19.1905L43.0801 9.10047C43.3001 8.69047 43.8201 8.54047 44.2401 8.76047C44.6501 8.98047 44.8101 9.50047 44.5801 9.91047ZM32.8101 20.6005C29.6301 20.6005 28.7601 18.5105 28.5301 17.4705C28.4401 17.0605 28.4301 16.7705 28.4301 16.6305C28.4301 16.1405 28.8301 15.7405 29.3201 15.7405C29.7801 15.7405 30.1501 16.0905 30.2001 16.5305C30.2001 16.5605 30.2001 16.6105 30.2101 16.6705C30.2101 16.7205 30.2201 16.7705 30.2201 16.8205C30.2201 16.8505 30.2201 16.8905 30.2201 16.9305C30.2201 17.0005 30.2401 17.0805 30.2501 17.1605C30.2801 17.3305 30.3401 17.5205 30.4401 17.7205C30.4601 17.7405 30.4601 17.7605 30.4701 17.7805C30.7701 18.3405 31.3901 18.8905 32.5901 18.9505C34.3901 19.0005 34.9201 18.4005 34.9301 17.6505C34.8601 16.7805 34.8101 16.1605 32.7301 15.3105C30.3001 14.3205 28.7501 13.7205 28.7501 11.6405C28.7501 9.56047 30.6801 8.71047 32.4501 8.71047C32.8901 8.71047 33.2801 8.76047 33.6201 8.84047C34.3001 8.98047 35.0701 9.26047 35.6401 9.82047C35.7901 9.95047 35.9401 10.1405 36.0801 10.3605C36.0901 10.3805 36.1101 10.4005 36.1201 10.4305C36.1501 10.4905 36.1801 10.5605 36.2201 10.6305C36.2301 10.6505 36.2501 10.6705 36.2501 10.7005C36.4201 11.0905 36.5401 11.5505 36.5401 12.0105C36.5401 12.0905 36.5601 12.2305 36.5301 12.3905C36.5301 12.3905 36.5301 12.4105 36.5301 12.4305C36.5301 12.4705 36.5101 12.5005 36.5001 12.5405C36.5001 12.5505 36.4901 12.5705 36.4801 12.5805C36.4801 12.5905 36.4601 12.6105 36.4601 12.6205C36.3201 12.9205 36.0201 13.1105 35.6701 13.1105C35.3601 13.1105 35.1001 12.9605 34.9401 12.7205C34.9301 12.7005 34.9201 12.6805 34.9001 12.6605C34.8801 12.6105 34.8601 12.5705 34.8401 12.5205C34.8401 12.5205 34.8401 12.5205 34.8301 12.5005C34.8301 12.4805 34.8201 12.4505 34.8101 12.4305C34.7701 12.2905 34.7501 12.1405 34.7501 12.0105C34.7501 11.9805 34.7501 11.9605 34.7501 11.9305C34.7501 11.8905 34.7501 11.8505 34.7501 11.8105C34.7301 11.5905 34.6601 11.4205 34.5801 11.2705C34.5701 11.2505 34.5601 11.2405 34.5601 11.2305C34.5401 11.2005 34.5301 11.1805 34.5101 11.1605C34.0701 10.5205 33.1201 10.1905 32.4301 10.1905C31.4901 10.1905 30.4901 10.7005 30.4901 11.6405C30.4901 12.5805 31.3901 13.1505 32.9101 13.6505C35.8901 14.7405 36.5001 15.6205 36.7701 16.6905C37.0601 17.8705 36.5501 20.5605 32.8101 20.5605M49.4201 10.7505C47.7701 3.36047 40.3201 -1.27953 32.7801 0.40047C25.2401 2.08047 20.4801 9.44047 22.1201 16.8305C22.6701 19.2705 23.8501 21.4105 25.4501 23.1305C26.2801 24.0105 24.4301 28.8805 25.4601 29.5105C26.3001 30.0305 29.9801 26.3705 30.9101 26.7005C33.3301 27.5605 36.0401 27.7805 38.7501 27.1805C46.2901 25.5005 51.0601 18.1405 49.4101 10.7505" fill="#00A28C"></path>
<path d="M11.9 66.0005C11.75 66.3905 11.59 66.7905 11.43 67.1805C11.08 68.0105 10.69 68.8205 10.29 69.6205C9.46 71.2705 8.52 72.8805 7.3 74.2705C6.7 74.9605 4.9 76.8505 3.96 75.7005C3.21 74.7805 4.16 72.1605 6.23 69.5805C8.82 66.3405 12.23 65.0905 12.23 65.0905C12.13 65.1205 11.95 65.8905 11.9 66.0105M57.98 54.7005C57.61 54.1105 57.13 53.7405 54.81 53.8105C52.48 53.8805 44.14 54.9505 41.94 55.2205C39.74 55.4905 25.72 57.5005 23.42 57.9905C22.36 58.2205 20.46 58.5105 18.37 58.9405V58.9205C18.37 58.9205 24 38.8505 24.15 38.2905C24.3 37.7305 24.79 36.1005 24.15 35.8805C23.51 35.6605 22.55 35.7605 21.64 36.3005C20.73 36.8405 20.12 37.6305 19.85 38.4405C19.59 39.2605 18.76 41.8605 18.4 42.9205C18.03 43.9805 16.79 47.5005 15.89 48.8705C14.9 50.3705 13.65 51.4505 12.72 50.7905C11.99 50.2705 12.35 48.6205 12.57 47.6605C12.79 46.7005 13.43 44.7305 13.73 43.7705C14.03 42.8105 14.47 41.5505 14.54 40.5705C14.61 39.5905 13.83 38.7005 13.1 38.5605C12.38 38.4205 11.61 38.2905 11.32 38.8505C11.02 39.4205 11.22 40.2805 11.12 41.0905C11.03 41.8305 10.68 42.5205 10.42 43.2105C10.14 43.9805 9.86 44.7505 9.6 45.5305C9.22 46.6805 8.88 47.8505 8.62 49.0405C8.36 50.2005 8.12 51.4205 8.23 52.6105C8.32 53.5305 8.67 54.4705 9.38 55.0605C9.96 55.5505 10.75 55.7705 11.51 55.7205C12.81 55.6305 14.01 54.7605 14.91 53.8705C15.32 53.4605 16 52.8405 16.18 52.2605C15.36 54.7405 14.53 57.2105 13.75 59.7105C13.72 59.8205 13.68 59.9205 13.61 60.0005C13.53 60.1005 13.4 60.1505 13.29 60.1905C13.2 60.2305 13.11 60.2605 13.02 60.3005C12.39 60.5205 11.78 60.7505 11.24 61.0105C9.86 61.6605 8.7 62.3905 7.79 63.0505C6.51 63.9205 5.32 64.9105 4.25 66.0405C2.88 67.5005 1.76 69.1905 1 71.0505C0.290001 72.7705 -0.289999 74.7905 0.190001 76.6205C0.660001 78.3905 2.14 79.7205 3.97 79.9205C5.26 80.0605 6.57 79.6805 7.69 79.0205C8.81 78.3705 9.75 77.4505 10.6 76.4705C13.1 73.5905 14.7 70.1505 15.94 66.5805C16.26 65.6505 16.58 64.7205 16.88 63.7805C20.64 62.7405 29.71 61.0505 32.05 60.6505C34.41 60.2405 45.85 58.7305 48.59 58.3705C51.32 58.0005 57.12 57.6305 57.82 56.9305C58.51 56.2205 58.36 55.2605 57.99 54.6705" fill="#63226C"></path>
</g>
<mask id="mask1_474_6007" style="mask-type:luminance" maskUnits="userSpaceOnUse" x="0" y="0" width="63" height="81">
<path d="M62.76 0H0V80.04H62.76V0Z" fill="white"></path>
</mask>
<g mask="url(#mask1_474_6007)">
<path d="M32.9999 39.7906C32.7399 41.1006 32.1399 43.2606 31.3799 45.5706C30.5599 48.0306 29.6599 50.0406 28.3999 49.8006C26.9999 49.5306 26.8199 47.3906 26.9099 46.2006C26.9999 45.0006 27.3399 43.5906 27.9399 42.2206C29.0699 39.6406 30.4699 38.8506 31.4899 38.4506C32.3199 38.1306 33.2799 38.4206 33.0099 39.8006M37.3899 47.2806C37.3899 47.2806 36.9399 48.4406 35.4599 48.8806C33.9799 49.3306 35.5099 43.3206 35.5099 43.3206C35.5099 43.3206 36.7799 37.4506 36.9799 36.5706C37.1799 35.6906 37.0999 34.8406 36.1299 34.5606C35.1599 34.2706 34.2099 34.2206 33.9199 35.1406L33.6299 36.0606C33.6299 36.0606 32.5899 34.6906 30.4799 35.0006C28.3699 35.3106 25.8099 38.2606 24.2799 42.8806C22.7499 47.5106 23.3099 50.2606 23.5699 51.3906C23.8299 52.5206 24.4499 54.0406 26.5999 54.3606C28.7599 54.6906 30.3499 53.1006 31.1799 51.0406C31.1799 51.0406 31.2199 52.7706 32.6999 53.2606C34.1799 53.7506 36.2399 52.2906 36.9799 51.5906C37.7199 50.9006 37.3899 47.2706 37.3899 47.2706" fill="#63226C"></path>
<path d="M46.5899 40.0102C46.4799 41.5402 46.1099 43.0202 45.6099 44.4602C45.1899 45.6902 44.7199 46.9602 43.8299 47.9002C43.0399 48.7202 41.3799 49.2602 40.4699 48.2402C40.4699 48.2402 40.8999 45.8402 41.5499 43.4302C42.1499 41.1402 42.8999 38.4502 44.4599 37.3102C46.3899 35.9002 46.6999 38.6202 46.5999 40.0202M48.9799 34.0102C48.0199 32.6802 46.0299 32.8702 44.9599 33.4602C43.8899 34.0502 42.7399 35.6902 42.5399 36.1802L42.7499 34.7302C42.7499 34.7302 43.0399 34.2402 41.8299 33.9402C40.6099 33.6402 39.9699 33.5602 39.7099 34.5602C39.4399 35.5602 34.8399 59.9602 34.8399 59.9602C34.8399 59.9602 34.5299 61.4002 34.8399 62.1702C35.1499 62.9402 36.2199 63.3902 37.2499 62.1702C38.2799 60.9502 38.6799 55.9902 39.0299 53.5602C39.3899 51.1402 39.5099 50.5602 39.5099 50.5602C39.5099 50.5602 40.3899 51.8902 42.4299 52.2102C44.8099 52.5902 46.4999 50.8302 47.7599 48.3102C49.0499 45.7302 49.8899 42.0502 50.0299 39.9102C50.1699 37.8502 49.9499 35.3402 48.9799 34.0102Z" fill="#63226C"></path>
</g>
<mask id="mask2_474_6007" style="mask-type:luminance" maskUnits="userSpaceOnUse" x="0" y="0" width="63" height="81">
<path d="M62.74 0H0V80.04H62.74V0Z" fill="white"></path>
</mask>
<g mask="url(#mask2_474_6007)">
<path d="M57.5498 35.2602C57.8098 35.0002 58.0998 34.7502 58.4598 34.6602C58.9698 34.5302 59.4098 34.7802 59.5098 35.3002C59.6598 36.0902 59.2398 37.0102 58.7798 37.6202C58.3398 38.2002 57.7698 38.6702 57.1598 39.0702C56.8798 39.2502 56.5898 39.4002 56.2798 39.5202C55.4298 39.8702 55.1898 39.7802 55.1698 39.8602C55.3498 38.9002 56.3298 36.5102 57.5498 35.2602ZM61.0898 43.8602C60.5598 43.6802 59.9998 44.5302 59.6898 44.9102C59.3498 45.3202 58.9198 45.6402 58.5198 45.9802C57.6298 46.7402 55.6198 48.0702 54.4698 46.9902C53.9898 46.5302 53.9198 45.4502 54.0198 44.7502C54.0998 44.1502 54.4898 43.1202 54.5298 43.1202C55.5098 43.1002 56.5298 42.7002 57.0598 42.4602C58.6598 41.7802 60.0598 40.7202 61.0298 39.2702C62.3698 37.2602 63.8698 33.6002 61.3998 31.8502C61.0298 31.5902 60.5998 31.4302 60.1598 31.3502C58.6098 31.0802 57.2798 31.3302 56.0698 32.3502C54.4398 33.7202 53.8998 34.4402 52.5498 36.9502C51.0198 39.8002 50.1498 43.2802 50.3398 46.5202C50.3898 47.3002 50.4898 48.1002 50.7598 48.8402C51.0298 49.5802 51.4798 50.2702 52.1098 50.7402C53.0998 51.4802 54.4498 51.6102 55.6198 51.3102C57.0998 50.9402 58.7698 49.8802 59.2398 49.5202C59.7098 49.1502 61.7498 47.3102 62.0398 46.7202C62.3198 46.1302 61.9298 45.1602 61.9298 45.1602C61.7998 44.8102 61.5298 43.9902 61.0898 43.8502" fill="#63226C"></path>
</g>
</g>
<defs>
<clipPath id="clip0_474_6007">
<rect width="62.76" height="80.04" fill="white"></rect>
</clipPath>
</defs>
</svg>
